<?xml version="1.0" encoding="UTF-8" standalone="no"?>
<svg id="svg2" xmlns:rdf="http://www.w3.org/1999/02/22-rdf-syntax-ns#" xmlns="http://www.w3.org/2000/svg" xml:space="preserve" height="512" width="512" version="1.1" xmlns:cc="http://creativecommons.org/ns#" viewBox="0 0 829.94666 124.84" xmlns:dc="http://purl.org/dc/elements/1.1/"><metadata id="metadata8"><rdf:RDF><cc:Work rdf:about=""><dc:format>image/svg+xml</dc:format><dc:type rdf:resource="http://purl.org/dc/dcmitype/StillImage"/></cc:Work></rdf:RDF></metadata><defs id="defs6"><clipPath id="clipPath20" clipPathUnits="userSpaceOnUse"><path id="path18" d="m0 0h6224.6v936h-6224.6z"/></clipPath></defs><g id="g10" transform="matrix(1.3333 0 0 -1.3333 0 124.84)"><g id="g12" transform="scale(.1)"><g id="g14"><g id="g16" fill="#100f0d" clip-path="url(#clipPath20)"><path id="path22" d="m156.29 524.91c78.535 0 142.22 63.387 142.22 141.63 0 78.27-63.684 141.68-142.22 141.68-78.555 0-142.21-63.414-142.21-141.68 0-78.242 63.66-141.63 142.21-141.63"/><path id="path24" d="m156.3 492.56c-90.187 0-156.3-79.14-156.3-160.92v-55.039c0-7.793 6.3672-14.18 14.199-14.18h284.14c7.859 0 14.226 6.387 14.226 14.18v55.039c0 81.777-66.101 160.92-156.26 160.92"/><path id="path26" d="m526 554.06c87.246 0 158.01 70.492 158.01 157.42 0 86.957-70.762 157.44-158.01 157.44-87.285 0-158.02-70.488-158.02-157.44 0-86.93 70.731-157.42 158.02-157.42"/><path id="path28" d="m526 518.16c-100.2 0-173.67-87.961-173.67-178.82v-61.16c0-8.653 7.078-15.754 15.781-15.754h315.74c8.73 0 15.8 7.101 15.8 15.754v61.16c0 90.859-73.457 178.82-173.65 178.82"/><path id="path30" d="m932.73 586.46c96.936 0 175.54 78.301 175.54 174.91 0 96.582-78.6 174.91-175.54 174.91-96.992 0-175.6-78.325-175.6-174.91 0-96.605 78.613-174.91 175.6-174.91"/><path id="path32" d="m932.73 546.57c-111.34 0-192.97-97.718-192.97-198.7v-67.949c0-9.61 7.859-17.5 17.539-17.5h350.81c9.7 0 17.56 7.89 17.56 17.5v67.949c0 100.98-81.61 198.7-192.94 198.7"/><path id="path34" d="m1243.6 914.86h149.92v-99.121c42.13 58.262 99.15 112.79 199.5 112.79 94.18 0 159.86-45.839 194.55-115.25 53.29 69.415 122.67 115.25 221.8 115.25 142.51 0 229.24-90.468 229.24-250.31v-417.58h-149.9v371.72c0 104.11-48.34 159.88-132.59 159.88-81.78 0-140.02-57.051-140.02-162.34v-369.26h-149.95v372.96c0 101.59-49.55 158.64-132.57 158.64s-140.03-61.973-140.03-163.58v-368.02h-149.92v654.21"/><path id="path36" d="m3992.9 586.52v2.461c0 126.41-85.53 209.43-187.15 209.43-101.6 0-190.8-84.258-190.8-209.43v-2.461c0-126.41 89.2-209.42 190.8-209.42 102.85 0 187.15 80.546 187.15 209.42zm-524.16 328.33h149.92v-109c48.32 68.144 116.47 122.68 221.8 122.68 154.9 0 304.82-122.68 304.82-339.54v-2.461c0-216.82-148.69-339.51-304.82-339.51-107.81 0-175.96 54.492-221.8 115.23v-362.25h-149.92v914.86"/><path id="path38" d="m4554.9 377.1c101.62 0 190.8 83.007 190.8 209.42v2.461c0 125.17-89.18 209.43-190.8 209.43s-187.11-83.019-187.11-209.43v-2.461c0-128.88 84.24-209.42 187.11-209.42zm337.03-116.16h-149.92v101.3c-45.84-60.734-114-115.23-221.79-115.23-156.16 0-304.87 122.69-304.87 339.51v2.461c0 216.87 149.96 339.54 304.87 339.54 105.31 0 173.45-54.531 221.79-122.68v109h149.92v-653.9"/><path id="path40" d="m4967.4 584.06v2.468c0 185.85 143.75 342 339.51 342 123.95 0 200.77-45.839 261.47-112.79l-92.93-100.34c-45.84 48.332-94.16 81.777-169.75 81.777-109.04 0-188.36-94.168-188.36-208.18v-2.461c0-116.47 80.55-210.65 195.79-210.65 70.64 0 122.69 33.457 169.76 81.777l90.47-89.218c-64.43-71.868-140.02-122.67-267.66-122.67-194.55 0-338.3 152.41-338.3 338.29"/><path id="path42" d="m6075.9 633.6c-9.9 96.668-66.92 172.25-166.06 172.25-91.68 0-156.11-70.657-169.74-172.25zm-484.51-48.359v2.52c0 187.11 132.59 340.76 319.7 340.76 208.19 0 313.5-163.55 313.5-351.91 0-13.633-1.23-27.246-2.48-42.101h-480.78c16.13-106.59 91.68-166.08 188.36-166.08 73.1 0 125.13 27.246 177.18 78.086l87.99-78.086c-61.95-74.328-147.46-122.67-267.65-122.67-189.59 0-335.82 137.53-335.82 339.48"/><path id="path44" d="m2591.7 0h-146.52l79.49 263.18-261.39 651.73h160.23l168.2-449.76 137.1 449.76h158.5l-295.6-914.91"/><path id="path46" d="m3140.6 930.36c-128.39 0-235.3-81.496-235.3-203.75v-2.461c0-123.52 109.83-162.63 205.22-189.54 75.82-23.211 137.4-39.343 137.4-89.5v-2.421c0-42.813-29.78-64.805-93.36-64.805-65.15 0-139.3 26.289-208.2 77.461l-58.63-119.2c78.52-57.364 175.12-87.434 262.14-87.434 134.54 0 242.64 73.164 242.64 208.88v2.43c0 116.16-108.36 158.98-202.54 188.33-75.8 24.453-141.06 43.992-141.06 90.468v2.45c0 37.921 30.06 61.367 87.55 61.367 53.49 0 117.59-22.996 179.68-60.555l58.68 117.04c-68.01 43.926-154.87 71.242-234.22 71.242"/></g></g></g></g></svg>